<svg version="1.1" id="Layer_1" xmlns="http://www.w3.org/2000/svg" xmlns:xlink="http://www.w3.org/1999/xlink" x="0px" y="0px"
	 width="100%" viewBox="0 0 480 480" enable-background="new 0 0 480 480" xml:space="preserve">
<path fill="#DCD9CF" opacity="1.000000" stroke="none" 
	d="
M481.000000,106.000000 
	C481.000000,231.300827 481.000000,356.101654 481.000000,480.951233 
	C321.074158,480.951233 161.148315,480.951233 1.111236,480.951233 
	C1.111236,321.115875 1.111236,161.231659 1.111236,1.173721 
	C160.999832,1.173721 320.999908,1.173721 481.000000,1.173721 
	C481.000000,35.851639 481.000000,70.675819 481.000000,106.000000 
M388.500000,478.000000 
	C415.827271,478.000000 443.154572,478.000458 470.481842,477.999695 
	C477.997894,477.999481 477.999695,477.997833 477.999725,470.460022 
	C478.000092,320.660187 478.000000,170.860367 478.000000,21.060543 
	C478.000000,15.539033 478.000000,10.017523 478.000000,4.000026 
	C475.431122,4.000026 473.628876,4.000026 471.826630,4.000026 
	C318.027710,4.000029 164.228775,3.999598 10.429842,4.001552 
	C4.009098,4.001634 4.001233,4.011998 4.001168,10.628774 
	C3.999675,164.094452 3.999805,317.560120 4.000695,471.025787 
	C4.000735,477.995483 4.005407,477.999390 11.084199,477.999420 
	C136.556137,478.000214 262.028076,478.000000 388.500000,478.000000 
z"/>
<path fill="#FFFFFF" opacity="1.000000" stroke="none" 
	d="
M388.000000,478.000000 
	C262.028076,478.000000 136.556137,478.000214 11.084199,477.999420 
	C4.005407,477.999390 4.000735,477.995483 4.000695,471.025787 
	C3.999805,317.560120 3.999675,164.094452 4.001168,10.628774 
	C4.001233,4.011998 4.009098,4.001634 10.429842,4.001552 
	C164.228775,3.999598 318.027710,4.000029 471.826630,4.000026 
	C473.628876,4.000026 475.431122,4.000026 478.000000,4.000026 
	C478.000000,10.017523 478.000000,15.539033 478.000000,21.060543 
	C478.000000,170.860367 478.000092,320.660187 477.999725,470.460022 
	C477.999695,477.997833 477.997894,477.999481 470.481842,477.999695 
	C443.154572,478.000458 415.827271,478.000000 388.000000,478.000000 
M7.000000,152.500000 
	C7.000000,259.916443 7.000000,367.332886 7.000000,474.703705 
	C163.310822,474.703705 319.030579,474.703705 475.062622,474.703705 
	C475.062622,318.684326 475.062622,162.961395 475.062622,7.294759 
	C318.709290,7.294759 162.981003,7.294759 7.000000,7.294759 
	C7.000000,55.559387 7.000000,103.529694 7.000000,152.500000 
z"/>
<path fill="#003366" opacity="1.000000" stroke="none" 
	d="
M7.000000,152.000000 
	C7.000000,103.529694 7.000000,55.559387 7.000000,7.294759 
	C162.981003,7.294759 318.709290,7.294759 475.062622,7.294759 
	C475.062622,162.961395 475.062622,318.684326 475.062622,474.703705 
	C319.030579,474.703705 163.310822,474.703705 7.000000,474.703705 
	C7.000000,367.332886 7.000000,259.916443 7.000000,152.000000 
z"/>
</svg>